<?xml version="1.0" standalone="no"?>
<!DOCTYPE svg PUBLIC "-//W3C//DTD SVG 20010904//EN"
 "http://www.w3.org/TR/2001/REC-SVG-20010904/DTD/svg10.dtd">
<svg version="1.0" xmlns="http://www.w3.org/2000/svg"
 width="260.000000pt" height="260.000000pt" viewBox="0 0 260.000000 260.000000"
 preserveAspectRatio="xMidYMid meet">
<metadata>
Created by potrace 1.14, written by Peter Selinger 2001-2017
</metadata>
<g transform="translate(0.000000,260.000000) scale(0.100000,-0.100000)"
fill="#000000" stroke="none">
<path d="M1133 1921 c10 -12 9 -12 -9 -3 -16 8 -24 8 -32 0 -9 -9 -12 -9 -12
1 0 11 -3 11 -15 1 -12 -10 -15 -10 -15 0 0 8 -4 9 -12 3 -7 -5 -47 -9 -90 -9
-42 1 -74 -2 -72 -5 7 -11 -32 -17 -49 -8 -10 6 -18 5 -23 -2 -4 -8 -9 -7 -15
2 -6 9 -9 10 -9 2 0 -7 -10 -10 -25 -7 -14 2 -25 0 -25 -6 0 -6 -5 -8 -11 -4
-6 3 -15 0 -20 -7 -5 -8 -9 -9 -9 -3 0 9 -10 8 -36 -1 -20 -6 -47 -11 -60 -9
-13 1 -22 -2 -18 -7 3 -5 -13 -9 -36 -9 -30 0 -39 -3 -34 -12 5 -9 2 -9 -9 1
-13 11 -20 11 -32 1 -8 -6 -19 -9 -25 -5 -5 3 -10 2 -10 -3 0 -5 -11 -8 -25
-7 -14 2 -23 -1 -19 -6 5 -8 -17 -13 -32 -6 -3 1 -10 -6 -15 -16 -6 -9 -14
-15 -19 -12 -4 3 -11 -2 -14 -11 -3 -8 -10 -12 -16 -9 -5 3 -10 0 -10 -7 0 -9
-3 -9 -10 2 -8 13 -10 12 -10 -3 0 -10 -4 -15 -10 -12 -5 3 -10 2 -10 -4 0 -5
-10 -8 -21 -6 -12 3 -19 2 -15 -2 3 -3 -3 -12 -14 -20 -20 -14 -22 -36 -6 -62
6 -10 5 -12 -3 -7 -15 9 -12 -53 3 -73 8 -11 8 -13 -1 -7 -7 4 -13 2 -13 -3 0
-6 4 -11 9 -11 5 0 12 -7 15 -16 3 -8 2 -12 -4 -9 -6 3 -10 2 -10 -4 0 -5 5
-13 10 -16 6 -4 8 -11 4 -16 -3 -5 0 -17 8 -26 7 -9 8 -14 2 -10 -6 3 -11 0
-11 -8 0 -8 4 -12 9 -9 4 3 8 -11 8 -30 0 -21 5 -36 12 -36 6 0 8 -3 5 -7 -4
-3 -1 -13 6 -21 9 -13 9 -14 0 -8 -9 5 -11 2 -7 -8 3 -9 10 -16 15 -16 5 0 9
-9 9 -20 0 -11 6 -20 13 -20 8 0 7 -4 -3 -10 -13 -8 -13 -10 2 -10 12 0 15 -5
11 -17 -5 -12 -3 -14 8 -8 11 7 11 5 -1 -10 -8 -10 -10 -16 -3 -12 12 7 26 -7
29 -31 2 -7 12 -21 23 -31 23 -20 29 -37 9 -25 -9 5 -9 2 1 -9 15 -19 26 -23
15 -5 -4 7 -3 8 4 4 7 -4 12 -14 12 -22 0 -8 8 -14 18 -14 14 0 15 -2 2 -10
-11 -7 -11 -10 -2 -10 7 0 10 -5 7 -10 -4 -6 -1 -9 6 -8 7 2 13 -4 14 -12 0
-9 8 -14 18 -12 10 2 17 -4 17 -14 0 -10 5 -14 14 -11 11 4 13 1 9 -10 -4 -11
-2 -14 5 -9 7 4 12 2 12 -4 0 -6 5 -8 12 -4 7 5 8 3 4 -5 -5 -8 0 -14 13 -18
11 -3 19 -8 17 -12 -2 -3 2 -12 10 -19 11 -10 14 -10 14 0 0 7 8 1 18 -14 9
-16 21 -28 26 -28 4 0 3 7 -4 15 -9 10 -9 15 -1 15 6 0 11 -5 11 -10 0 -6 11
-15 25 -20 14 -5 28 -17 31 -25 4 -8 10 -15 16 -15 5 0 6 6 2 13 -4 6 3 2 15
-10 13 -14 27 -20 38 -16 10 4 14 2 10 -4 -4 -6 0 -14 9 -17 8 -3 12 -11 8
-17 -4 -8 -3 -9 5 -5 6 4 9 13 5 19 -3 7 2 3 10 -7 9 -11 16 -16 16 -10 0 5 4
4 8 -3 4 -6 14 -13 22 -15 21 -5 39 -22 33 -31 -3 -5 4 -4 16 2 17 9 22 9 26
-2 3 -7 18 -12 35 -11 22 1 30 -2 30 -14 0 -13 2 -14 9 -4 11 18 20 17 37 -5
7 -10 14 -13 14 -6 0 13 25 12 37 -2 4 -4 2 -5 -6 0 -10 6 -12 4 -7 -4 5 -7
13 -8 19 -4 18 13 47 9 58 -7 8 -11 12 -12 15 -3 3 7 12 9 20 6 7 -3 12 -8 10
-12 -3 -4 6 -7 19 -7 13 0 21 4 19 8 -3 4 2 8 11 8 9 0 14 -3 11 -8 -2 -4 16
-7 40 -7 24 0 44 4 44 9 0 5 7 3 15 -4 10 -9 15 -9 15 -1 0 6 5 11 11 11 5 0
8 -4 5 -8 -2 -4 4 -8 15 -8 10 0 19 4 19 9 0 5 7 4 15 -3 9 -7 15 -8 15 -2 0
15 28 23 36 10 4 -6 3 -8 -4 -4 -6 3 -13 2 -16 -3 -5 -8 17 -8 34 0 3 1 10 3
15 3 6 1 21 8 34 15 13 7 21 8 17 3 -4 -6 2 -10 13 -9 11 0 18 4 15 8 -2 4 0
10 6 14 5 3 10 2 10 -3 0 -5 7 -9 15 -9 8 0 15 5 15 11 0 6 5 4 10 -4 8 -12
10 -12 10 5 0 17 2 17 10 5 8 -12 10 -12 11 5 l0 20 9 -20 c5 -11 9 -15 9 -9
1 11 10 14 60 17 20 1 27 6 23 16 -3 9 -1 12 6 7 7 -4 12 -2 12 5 0 8 5 8 18
-2 9 -7 14 -10 10 -5 -4 5 -1 15 7 22 17 17 29 18 19 2 -6 -10 -5 -10 8 -1 8
7 19 9 23 5 5 -4 6 -2 3 3 -3 6 0 15 7 22 11 10 15 10 18 0 4 -9 6 -9 6 1 1 7
6 10 11 7 6 -3 10 2 11 12 0 10 3 13 6 6 7 -18 23 -16 23 3 0 8 4 13 9 9 6 -3
13 0 18 7 4 7 15 13 23 13 8 0 14 6 12 14 -3 12 -1 12 14 0 12 -9 15 -9 10 -1
-6 11 10 17 36 13 4 0 5 6 2 14 -4 10 0 15 11 15 9 0 14 4 11 9 -3 5 1 12 10
15 10 4 13 2 8 -6 -4 -7 -3 -8 4 -4 7 4 12 13 12 21 0 8 5 17 12 21 6 4 8 3 5
-3 -3 -5 0 -10 8 -10 10 0 11 5 4 18 -7 15 -6 17 10 14 15 -3 18 0 14 12 -4
11 -2 14 5 9 7 -4 12 -2 12 4 0 6 5 8 10 5 6 -4 9 -1 8 7 -2 7 3 12 10 10 8
-1 11 2 7 8 -3 5 -1 10 5 10 6 0 9 4 6 9 -3 5 1 11 9 15 8 3 15 13 15 21 0 9
5 13 10 10 6 -3 10 0 10 8 0 8 7 20 15 27 8 7 12 16 9 21 -3 5 2 9 10 9 10 0
13 6 9 17 -4 11 -3 14 5 9 8 -5 12 1 12 18 0 14 5 26 11 26 6 0 9 9 6 20 -3
11 -1 18 4 14 8 -5 13 9 10 29 0 4 4 7 11 7 6 0 9 3 5 6 -3 4 0 19 8 34 8 15
11 30 8 34 -4 3 -1 6 5 6 6 0 9 9 7 21 -3 15 0 19 10 15 8 -3 12 0 9 8 -2 6 2
28 10 47 8 19 13 47 12 62 -2 19 1 27 13 28 10 0 12 2 3 6 -6 2 -9 10 -5 16
13 21 11 36 -5 49 -10 7 -14 8 -10 4 4 -5 3 -15 -3 -23 -9 -9 -8 -13 0 -13 15
0 -15 -46 -35 -54 -9 -3 -12 -2 -8 5 3 6 -3 5 -14 -2 -12 -7 -18 -17 -15 -23
3 -5 1 -6 -5 -2 -18 11 -14 54 6 65 16 10 16 10 0 11 -11 0 -15 5 -12 15 4 8
9 13 13 11 3 -2 6 16 5 40 0 25 3 47 8 50 5 3 3 13 -4 22 -11 13 -10 15 5 9 9
-3 17 -3 17 2 0 13 -42 38 -78 45 -17 4 -32 13 -32 19 0 7 -4 6 -10 -3 -8 -12
-10 -12 -10 -1 0 8 -3 11 -6 8 -4 -3 -15 -2 -26 4 -11 6 -29 12 -41 15 -12 2
-23 8 -25 14 -2 5 -17 10 -33 10 -20 0 -28 4 -23 11 5 8 1 8 -13 0 -14 -7 -23
-7 -30 0 -6 6 -26 11 -44 11 -19 0 -42 5 -51 9 -10 6 -19 5 -23 -1 -5 -8 -11
-8 -20 0 -7 6 -42 13 -77 15 -34 2 -75 8 -91 14 -15 6 -41 9 -57 7 -17 -2 -30
1 -30 6 0 5 -9 4 -20 -2 -15 -8 -20 -8 -20 1 0 9 -3 9 -14 0 -11 -9 -15 -9
-18 0 -3 9 -9 9 -26 0 -17 -9 -22 -9 -22 0 0 9 -3 9 -14 0 -11 -9 -15 -9 -18
0 -3 9 -9 9 -26 0 -15 -8 -22 -8 -22 -1 0 6 -4 8 -10 5 -5 -3 -10 0 -10 7 0 9
-3 9 -10 -2 -9 -13 -10 -13 -10 0 0 13 -1 13 -10 0 -9 -13 -10 -13 -10 0 0 12
-2 12 -9 1 -6 -9 -11 -10 -15 -2 -11 18 -26 13 -19 -6 7 -17 6 -17 -11 0 -20
20 -36 22 -36 5 0 -9 -3 -9 -12 0 -17 17 -28 15 -22 -5 4 -13 3 -15 -4 -5 -9
14 -86 26 -77 13 2 -4 -6 -6 -18 -5 -12 1 -22 3 -22 4 0 1 -16 2 -37 3 -30 2
-34 0 -25 -12z"/>
</g>
</svg>
